<svg width="153" height="280" viewBox="0 0 153 280" fill="none" xmlns="http://www.w3.org/2000/svg">
<path d="M132.693 102.789L132.701 102.787C134.508 102.425 136.308 101.854 138.085 101.245C138.576 101.078 139.063 100.907 139.549 100.738C140.74 100.322 141.921 99.9103 143.104 99.5467C143.212 99.6538 143.321 99.7593 143.425 99.8542C143.445 99.8719 143.465 99.8898 143.485 99.9077C141.69 102.121 139.221 103.168 136.634 104.266C136.132 104.479 135.625 104.694 135.119 104.919C134.415 105.232 133.574 105.328 132.635 105.34C132.19 105.346 131.736 105.334 131.272 105.321L131.201 105.319C130.717 105.306 130.222 105.294 129.738 105.305C128.777 105.328 127.801 105.445 126.96 105.881C126.096 106.33 125.423 107.092 125.032 108.301L125.032 108.302C124.47 110.051 124.446 111.962 124.55 113.87C124.589 114.572 124.643 115.266 124.698 115.956C124.794 117.177 124.889 118.383 124.889 119.586L124.889 119.607L124.891 119.628C124.95 120.339 125.009 121.02 125.069 121.7L125.069 121.702L125.069 121.702C125.128 122.383 125.187 123.063 125.246 123.772L125.246 123.775C125.605 127.851 126.566 131.511 128.418 134.643C130.273 137.781 133.008 140.361 136.872 142.296C140.851 144.288 144.601 146.869 148.003 149.806L148.005 149.808C150.741 152.14 151.968 154.263 151.968 156.311C151.968 158.363 150.737 160.516 148.117 162.907C146.594 164.198 145.077 165.366 143.447 166.415L143.437 166.421L143.437 166.422C139.789 168.896 137.654 170.73 136.915 173.08C136.176 175.428 136.872 178.163 138.401 182.285L138.404 182.293L138.407 182.302C139.244 184.337 140.199 186.25 141.272 188.159L141.275 188.164C141.915 189.273 142.397 190.286 142.674 191.199C142.95 192.112 143.011 192.892 142.848 193.552C142.535 194.817 141.314 195.903 138.294 196.543C138.294 196.543 138.293 196.543 138.293 196.543L138.397 197.032C134.967 197.743 134.849 199.401 136.859 202.006L132.693 102.789ZM132.693 102.789L132.685 102.79M132.693 102.789L132.685 102.79M132.685 102.79C131.251 103.029 130.069 103.127 129.112 103.029C128.147 102.931 127.368 102.63 126.801 102.035C126.241 101.446 125.95 100.635 125.821 99.6473C125.692 98.66 125.718 97.4417 125.837 95.9822C127.842 68.462 123.946 42.2927 108.652 18.7284L108.651 18.7276M132.685 102.79L108.651 18.7276M108.651 18.7276C103.669 11.0158 97.0549 5.07284 87.4163 1.51427C87.9488 3.05466 88.4808 4.57704 89.0078 6.08524C91.9901 14.6194 94.8136 22.6993 96.6704 31.0181L96.6705 31.0187M108.651 18.7276L96.6705 31.0187M96.6705 31.0187C103.791 63.1071 99.6341 93.8861 86.4707 123.695M96.6705 31.0187L86.4707 123.695M86.4707 123.695C79.1601 140.306 70.0634 155.945 60.9756 171.568C56.3811 179.467 51.7888 187.362 47.4308 195.376C33.3757 221.28 22.7812 248.068 23.6054 278.254L23.6054 278.255C23.8412 287.462 24.9018 296.659 27.2548 305.614L27.2573 305.623L27.2594 305.633C27.3043 305.835 27.4046 306.06 27.5363 306.335C27.5486 306.361 27.5613 306.387 27.5742 306.414C27.6882 306.651 27.8222 306.929 27.9014 307.199C27.9914 307.505 28.0393 307.891 27.8489 308.265C27.6616 308.634 27.3007 308.88 26.8337 309.049C26.4031 309.227 25.9927 309.268 25.6099 309.171C25.2282 309.074 24.9269 308.853 24.69 308.597C24.2636 308.137 23.9732 307.48 23.7538 306.984C23.7407 306.954 23.7278 306.925 23.7151 306.896C19.667 298.31 17.5278 289.254 16.5776 279.977L16.5775 279.976C13.135 245.738 22.8732 214.608 39.5806 185.298L39.5807 185.298C40.311 184.018 41.039 182.742 41.8207 181.304C35.794 184.281 30.6122 189.197 24.4767 199.072C5.60946 229.539 -2.98545 262.46 2.31568 298.089C6.77316 328.044 28.3314 347.178 58.4965 349.294L58.5014 349.294C63.5415 349.698 68.5805 349.583 73.6496 349.467C74.495 349.448 75.3413 349.428 76.1886 349.411L76.1986 349.411C76.4184 349.411 76.6646 349.419 76.8992 349.427C77.0644 349.432 77.2239 349.437 77.3643 349.439C77.7367 349.445 78.0693 349.433 78.3659 349.376C78.658 349.32 78.9003 349.223 79.1013 349.067C79.2043 348.987 79.304 348.886 79.397 348.755C66.0955 343.577 55.8407 335.956 48.5269 326.141C41.1181 316.199 36.7466 304.031 35.2608 289.926C34.0668 278.863 36.6911 269.832 42.4493 263.341C48.2031 256.855 57.0291 252.968 68.1175 252.072L68.1189 252.072C77.2751 251.358 86.3136 252.072 95.2322 254.216C102.986 255.98 110.68 256.436 118.238 253.642C123.364 251.717 126.762 248.972 128.566 245.445C130.37 241.916 130.621 237.521 129.28 232.208C128.868 230.608 128.388 229.053 127.905 227.491C127.838 227.276 127.772 227.06 127.705 226.843C127.158 225.066 126.621 223.274 126.202 221.418L86.4707 123.695Z" stroke="#510228"/>
</svg>
