<svg width="55" height="116" viewBox="0 0 55 116" fill="none" xmlns="http://www.w3.org/2000/svg">
<path d="M34.8895 56.7309C42.5737 71.6691 43.1872 86.9339 37.567 103.093C48.2145 90.0274 53.3607 78.0023 53.6923 66.6849C54.0422 54.741 49.0321 43.4918 39.2744 32.5427L39.2712 32.539C38.2414 31.3604 37.2025 30.1871 36.1622 29.0124C33.0335 25.4792 29.8933 21.9329 26.9566 18.1899C23.2243 13.4327 20.4492 8.23626 18.9449 1.29894C1.39537 28.5799 -5.49321 55.6732 9.11564 85.5147C9.36264 86.0158 9.61097 86.517 9.85954 87.0188C14.0503 95.4775 18.3108 104.077 17.4639 114.387C24.9027 107.071 29.996 98.4641 33.2601 88.659C36.1784 79.5869 35.285 70.61 34.3733 61.4502C34.2263 59.9732 34.0788 58.4915 33.9468 57.0038L34.8895 56.7309Z" stroke="#510228"/>
</svg>
