<svg width="119" height="60" viewBox="0 0 119 60" fill="none" xmlns="http://www.w3.org/2000/svg">
<path d="M27.0193 22.0934C20.8056 31.5418 13.7518 40.0751 1.30095 44.0814C26.427 57.342 50.5099 65.1027 76.8639 51.2121L76.8653 51.2113C80.7872 49.1606 84.5605 46.9005 88.3722 44.6174C91.0589 43.0081 93.7647 41.3874 96.5551 39.8206C102.934 36.2385 109.671 32.9912 117.38 30.9872C95.3249 18.7572 74.0559 18.3126 51.841 26.1918L51.3673 25.3256C66.1682 13.8353 83.1658 13.9434 100.283 15.0168C88.4686 8.34933 76.123 3.36677 62.8365 1.46594L62.8359 1.46585C56.3526 0.529954 50.5662 1.23456 45.4607 3.486C40.3541 5.73793 35.8977 9.55102 32.0971 14.8795L32.0972 14.8796L32.0903 14.8889C30.8371 16.5622 29.6462 18.2907 28.466 20.0037C27.9832 20.7044 27.5021 21.4026 27.0193 22.0934Z" stroke="#510228"/>
</svg>
